<svg width="44" height="44" viewBox="0 0 44 44" fill="none" xmlns="http://www.w3.org/2000/svg">
<mask id="path-1-inside-1_5_1533" fill="white">
<path d="M0 22C0 9.84974 9.84974 0 22 0C34.1503 0 44 9.84974 44 22C44 34.1503 34.1503 44 22 44C9.84974 44 0 34.1503 0 22Z"/>
</mask>
<path d="M0 22C0 9.84974 9.84974 0 22 0C34.1503 0 44 9.84974 44 22C44 34.1503 34.1503 44 22 44C9.84974 44 0 34.1503 0 22Z" fill="white" fill-opacity="0.06"/>
<path d="M22 44V42C10.9543 42 2 33.0457 2 22H0H-2C-2 35.2548 8.74517 46 22 46V44ZM44 22H42C42 33.0457 33.0457 42 22 42V44V46C35.2548 46 46 35.2548 46 22H44ZM22 0V2C33.0457 2 42 10.9543 42 22H44H46C46 8.74517 35.2548 -2 22 -2V0ZM22 0V-2C8.74517 -2 -2 8.74517 -2 22H0H2C2 10.9543 10.9543 2 22 2V0Z" fill="white" fill-opacity="0.08" mask="url(#path-1-inside-1_5_1533)"/>
<path fill-rule="evenodd" clip-rule="evenodd" d="M30 30V15.778C30 14.796 29.204 14 28.222 14H15.778C14.796 14 14 14.796 14 15.778V26.445C14 27.427 14.796 28.223 15.778 28.223H26.667L30 30Z" stroke="#F5F5FF" stroke-width="1.5" stroke-linecap="round" stroke-linejoin="round"/>
<path d="M22.177 21.073C22.275 21.171 22.275 21.329 22.177 21.427C22.079 21.525 21.921 21.525 21.823 21.427C21.725 21.329 21.725 21.171 21.823 21.073C21.921 20.975 22.079 20.976 22.177 21.073" stroke="#6C70FF" stroke-width="1.5" stroke-linecap="round" stroke-linejoin="round"/>
<path d="M26.177 21.073C26.275 21.171 26.275 21.329 26.177 21.427C26.079 21.525 25.921 21.525 25.823 21.427C25.725 21.329 25.725 21.171 25.823 21.073C25.921 20.975 26.079 20.976 26.177 21.073" stroke="#6C70FF" stroke-width="1.5" stroke-linecap="round" stroke-linejoin="round"/>
<path d="M18.177 21.073C18.275 21.171 18.275 21.329 18.177 21.427C18.079 21.525 17.921 21.525 17.823 21.427C17.725 21.329 17.725 21.171 17.823 21.073C17.921 20.975 18.079 20.976 18.177 21.073" stroke="#6C70FF" stroke-width="1.5" stroke-linecap="round" stroke-linejoin="round"/>
</svg>
