<svg width="24" height="24" viewBox="0 0 24 24" fill="none" xmlns="http://www.w3.org/2000/svg">
<path d="M3.1 12.096C3 11.808 3 11.52 3.1 11.232C5 7.872 8.5 4.992 12 4.992C15.5 4.992 19 7.872 20.9 11.232C21.1 11.52 21.1 11.808 20.9 12.096C19 15.456 15.5 18.336 12 18.336C8.5 18.432 5 15.456 3.1 12.096Z" stroke="#F5F5FF" stroke-width="1.5" stroke-linecap="round" stroke-linejoin="round"/>
<path d="M14.1 9.6C15.3 10.752 15.3 12.576 14.1 13.632C12.9 14.784 11 14.784 9.9 13.632C8.8 12.48 8.7 10.656 9.9 9.6C11.1 8.544 12.9 8.544 14.1 9.6Z" stroke="#6C70FF" stroke-width="1.5" stroke-linecap="round" stroke-linejoin="round"/>
</svg>
