<svg width="24" height="23" viewBox="0 0 24 23" fill="none" xmlns="http://www.w3.org/2000/svg">
<g clip-path="url(#clip0_1_11962)">
<path d="M22.6757 12.0521C22.6757 18.1344 17.4649 22.9994 11.3547 22.9994C5.24452 22.9994 0 18.1344 0 12.0521C0 5.96975 5.24452 1.3465 11.3547 1.3465C17.4649 1.3465 22.6757 5.97037 22.6757 12.0521Z" fill="url(#paint0_radial_1_11962)"/>
<path d="M24 12.0526C24 18.1349 17.4643 21.883 11.3548 21.883C5.24516 21.883 0.688019 18.1349 0.688019 12.0526C0.688019 5.97024 5.24454 -9.15527e-05 11.3548 -9.15527e-05C17.465 -9.15527e-05 24 5.97085 24 12.0526Z" fill="url(#paint1_radial_1_11962)"/>
<path d="M23.0133 12.0525C23.0133 18.1348 17.4644 22.6601 11.3542 22.6601C5.24399 22.6601 0.876831 18.1348 0.876831 12.0525C0.876831 5.97012 5.24461 1.69022 11.3548 1.69022C17.465 1.69022 23.0139 5.97074 23.0139 12.0525H23.0133Z" fill="url(#paint2_radial_1_11962)"/>
</g>
<defs>
<radialGradient id="paint0_radial_1_11962" cx="0" cy="0" r="1" gradientUnits="userSpaceOnUse" gradientTransform="translate(11.3375 12.1733) scale(11.1094 11.0587)">
<stop offset="0.61" stop-color="#00B1B8" stop-opacity="0"/>
<stop offset="0.76" stop-color="#00B1B8" stop-opacity="0.01"/>
<stop offset="0.82" stop-color="#00B1B8" stop-opacity="0.05"/>
<stop offset="0.86" stop-color="#00B1B8" stop-opacity="0.11"/>
<stop offset="0.89" stop-color="#00B1B8" stop-opacity="0.2"/>
<stop offset="0.92" stop-color="#00B1B8" stop-opacity="0.32"/>
<stop offset="0.94" stop-color="#00B1B8" stop-opacity="0.47"/>
<stop offset="0.97" stop-color="#00B1B8" stop-opacity="0.65"/>
<stop offset="0.99" stop-color="#00B1B8" stop-opacity="0.84"/>
<stop offset="1" stop-color="#00B1B8"/>
</radialGradient>
<radialGradient id="paint1_radial_1_11962" cx="0" cy="0" r="1" gradientUnits="userSpaceOnUse" gradientTransform="translate(12.344 10.9417) scale(11.3289 11.2772)">
<stop offset="0.61" stop-color="#7F1EE3" stop-opacity="0"/>
<stop offset="0.76" stop-color="#7F1EE3" stop-opacity="0"/>
<stop offset="0.81" stop-color="#7F1EE3" stop-opacity="0.04"/>
<stop offset="0.85" stop-color="#7F1EE3" stop-opacity="0.09"/>
<stop offset="0.88" stop-color="#7F1EE3" stop-opacity="0.16"/>
<stop offset="0.91" stop-color="#7F1EE3" stop-opacity="0.26"/>
<stop offset="0.93" stop-color="#7F1EE3" stop-opacity="0.38"/>
<stop offset="0.95" stop-color="#7F1EE3" stop-opacity="0.52"/>
<stop offset="0.97" stop-color="#7F1EE3" stop-opacity="0.69"/>
<stop offset="0.99" stop-color="#7F1EE3" stop-opacity="0.87"/>
<stop offset="1" stop-color="#7F1EE3"/>
</radialGradient>
<radialGradient id="paint2_radial_1_11962" cx="0" cy="0" r="1" gradientUnits="userSpaceOnUse" gradientTransform="translate(11.9451 12.1755) scale(10.8038 10.7545)">
<stop offset="0.61" stop-color="#D5B1FF" stop-opacity="0"/>
<stop offset="0.75" stop-color="#D5B1FF" stop-opacity="0"/>
<stop offset="0.81" stop-color="#D5B1FF" stop-opacity="0.03"/>
<stop offset="0.84" stop-color="#D5B1FF" stop-opacity="0.08"/>
<stop offset="0.87" stop-color="#D5B1FF" stop-opacity="0.15"/>
<stop offset="0.9" stop-color="#D5B1FF" stop-opacity="0.23"/>
<stop offset="0.92" stop-color="#D5B1FF" stop-opacity="0.34"/>
<stop offset="0.94" stop-color="#D5B1FF" stop-opacity="0.47"/>
<stop offset="0.96" stop-color="#D5B1FF" stop-opacity="0.61"/>
<stop offset="0.98" stop-color="#D5B1FF" stop-opacity="0.78"/>
<stop offset="1" stop-color="#D5B1FF"/>
</radialGradient>
<clipPath id="clip0_1_11962">
<rect width="24" height="23" fill="white"/>
</clipPath>
</defs>
</svg>
