<svg width="16" height="16" viewBox="0 0 16 16" fill="none" xmlns="http://www.w3.org/2000/svg">
<path d="M10.14 4.99333C7.57998 4.99333 5.61331 6.81333 5.61331 9.18C5.61331 11.5467 7.57998 13.3667 10.14 13.3667C12.7 13.3667 14.6666 11.5467 14.6666 9.18C14.6666 6.81333 12.7 4.99333 10.14 4.99333ZM10.1266 11.32C8.88665 11.32 7.96665 10.42 7.96665 9.18C7.96665 7.94 8.88665 7.02 10.1266 7.02C11.3666 7.02 12.3 7.94 12.3 9.18C12.3 10.42 11.4 11.32 10.1266 11.32ZM1.33331 5.15333H4.49331V13.2067H2.09331V6.46H1.33331V5.15333ZM4.57331 3.14667C4.57331 3.77333 3.99331 4.29333 3.28665 4.29333C2.57998 4.29333 2.01331 3.78 2.01331 3.14667C2.01331 2.51333 2.57331 2 3.27998 2C3.98665 2 4.56665 2.51333 4.56665 3.14667H4.57331Z" fill="#F5F5FF"/>
</svg>
