<svg width="40" height="40" viewBox="0 0 40 40" fill="none" xmlns="http://www.w3.org/2000/svg">
<mask id="path-1-inside-1_1_4724" fill="white">
<path d="M0 8C0 3.58172 3.58172 0 8 0H32C36.4183 0 40 3.58172 40 8V32C40 36.4183 36.4183 40 32 40H8C3.58172 40 0 36.4183 0 32V8Z"/>
</mask>
<path d="M8 0V2H32V0V-2H8V0ZM40 8H38V32H40H42V8H40ZM32 40V38H8V40V42H32V40ZM0 32H2V8H0H-2V32H0ZM8 40V38C4.68629 38 2 35.3137 2 32H0H-2C-2 37.5228 2.47715 42 8 42V40ZM40 32H38C38 35.3137 35.3137 38 32 38V40V42C37.5228 42 42 37.5228 42 32H40ZM32 0V2C35.3137 2 38 4.68629 38 8H40H42C42 2.47715 37.5228 -2 32 -2V0ZM8 0V-2C2.47715 -2 -2 2.47715 -2 8H0H2C2 4.68629 4.68629 2 8 2V0Z" fill="white" fill-opacity="0.08" mask="url(#path-1-inside-1_1_4724)"/>
<path d="M20.983 26C21.6331 26 22.4392 25.922 23.1802 25.779V24.1408C22.2572 24.2709 21.6591 24.3099 21.0741 24.3099C19.1369 24.3099 18.0448 23.8028 18.0448 22.5027C18.0448 20.7216 20.229 19.2134 23.5313 18.8364V17.5493C22.2572 17.6663 21.0351 17.9523 19.982 18.4334C19.5529 18.0043 19.3189 17.4453 19.3189 16.9642C19.3189 16.1192 19.956 15.4951 20.775 15.4951C21.1781 15.4951 21.6201 15.6381 22.0361 15.9762L22.8422 14.9231C22.2181 14.299 21.4121 14 20.632 14C19.3059 14 18.0578 14.8971 18.0578 16.5482C18.0578 17.2763 18.4088 18.1863 19.1759 18.8494C17.6678 19.7465 16.6667 21.0986 16.6667 22.8927C16.6667 24.9859 18.3308 26 20.983 26Z" fill="white"/>
</svg>
