<svg width="44" height="44" viewBox="0 0 44 44" fill="none" xmlns="http://www.w3.org/2000/svg">
<mask id="path-1-inside-1_124_36028" fill="white">
<path d="M0 22C0 9.84974 9.84974 0 22 0C34.1503 0 44 9.84974 44 22C44 34.1503 34.1503 44 22 44C9.84974 44 0 34.1503 0 22Z"/>
</mask>
<path d="M0 22C0 9.84974 9.84974 0 22 0C34.1503 0 44 9.84974 44 22C44 34.1503 34.1503 44 22 44C9.84974 44 0 34.1503 0 22Z" fill="white" fill-opacity="0.06"/>
<path d="M22 44V42C10.9543 42 2 33.0457 2 22H0H-2C-2 35.2548 8.74517 46 22 46V44ZM44 22H42C42 33.0457 33.0457 42 22 42V44V46C35.2548 46 46 35.2548 46 22H44ZM22 0V2C33.0457 2 42 10.9543 42 22H44H46C46 8.74517 35.2548 -2 22 -2V0ZM22 0V-2C8.74517 -2 -2 8.74517 -2 22H0H2C2 10.9543 10.9543 2 22 2V0Z" fill="white" fill-opacity="0.08" mask="url(#path-1-inside-1_124_36028)"/>
<path d="M24 32H20" stroke="#6C70FF" stroke-width="1.5" stroke-linecap="round" stroke-linejoin="round"/>
<path d="M28.3191 20.1983C28.3191 16.7273 25.5106 14 21.9362 14C18.3617 14 15.5532 16.7273 15.5532 20.1983V23.2975C15.5532 23.6694 15.2979 24.0413 14.9149 24.2893L14.2766 24.5372C13.5106 24.9091 13 25.7769 13 26.6446C13 27.8843 14.0213 29 15.4255 29H28.5745C29.8511 29 31 28.0083 31 26.6446C31 25.7769 30.4894 25.0331 29.7234 24.5372L29.0851 24.1653C28.5745 24.0413 28.3191 23.6694 28.3191 23.2975V20.1983Z" stroke="#F5F5FF" stroke-width="1.5" stroke-linecap="round" stroke-linejoin="round"/>
<path d="M30.7 12.1814C33.1 14.6271 33.1 18.4994 30.7 20.7413C28.3 22.9832 24.5 23.187 22.3 20.7413C19.9 18.2956 19.9 14.4233 22.3 12.1814C24.5 9.93953 28.3 9.93953 30.7 12.1814Z" fill="#FF7172"/>
<path d="M26.4208 19.096C26.0421 19.096 25.6741 19.04 25.3168 18.928C24.9595 18.816 24.6635 18.6587 24.4288 18.456L24.8048 17.752C24.9968 17.9227 25.2341 18.056 25.5168 18.152C25.7995 18.248 26.0928 18.296 26.3968 18.296C26.7648 18.296 27.0635 18.2187 27.2928 18.064C27.5221 17.9093 27.6368 17.688 27.6368 17.4C27.6368 17.144 27.5328 16.9413 27.3248 16.792C27.1221 16.6373 26.8101 16.56 26.3888 16.56H25.8928V15.936L27.1968 14.384H24.6688V13.616H28.3248V14.216L26.9408 15.856C27.4688 15.9147 27.8715 16.0853 28.1488 16.368C28.4315 16.6507 28.5728 16.9973 28.5728 17.408C28.5728 17.728 28.4848 18.016 28.3088 18.272C28.1381 18.528 27.8901 18.7307 27.5648 18.88C27.2448 19.024 26.8635 19.096 26.4208 19.096Z" fill="white"/>
</svg>
