<svg width="16" height="16" viewBox="0 0 16 16" fill="none" xmlns="http://www.w3.org/2000/svg">
<path d="M8.00002 8.79995V8.66662C8.00002 8.13328 8.33335 7.79995 8.66669 7.59995C9.00002 7.39995 9.33335 7.06662 9.33335 6.53328C9.33335 5.79995 8.73335 5.19995 8.00002 5.19995C7.26669 5.19995 6.66669 5.79995 6.66669 6.53328" stroke="#6C70FF" stroke-width="1.5" stroke-linecap="round" stroke-linejoin="round"/>
<path d="M8 14C11.3137 14 14 11.3137 14 8C14 4.68629 11.3137 2 8 2C4.68629 2 2 4.68629 2 8C2 11.3137 4.68629 14 8 14Z" stroke="#F5F5FF" stroke-width="1.5" stroke-linecap="round" stroke-linejoin="round"/>
<path d="M8.66665 10.8C8.66665 11.1333 8.39998 11.4666 7.99998 11.4666C7.59998 11.4666 7.33331 11.2 7.33331 10.8C7.33331 10.6 7.39998 10.4666 7.53331 10.3333C7.66665 10.2 7.79998 10.1333 7.99998 10.1333C8.33331 10.2 8.66665 10.4666 8.66665 10.8Z" fill="#6C70FF"/>
</svg>
