<svg width="16" height="16" viewBox="0 0 16 16" fill="none" xmlns="http://www.w3.org/2000/svg">
<path fill-rule="evenodd" clip-rule="evenodd" d="M4 14H2.66667C2.29867 14 2 13.7013 2 13.3333V9.33329C2 8.96529 2.29867 8.66663 2.66667 8.66663H4C4.368 8.66663 4.66667 8.96529 4.66667 9.33329V13.3333C4.66667 13.7013 4.368 14 4 14Z" stroke="#F5F5FF" stroke-width="1.5" stroke-linecap="round" stroke-linejoin="round"/>
<path d="M8.66669 11.3333H10.222C10.5107 11.3333 10.7914 11.24 11.022 11.0667L12.6327 9.85867C13.0347 9.55734 13.5974 9.59734 13.9527 9.95267V9.95267C14.3474 10.3473 14.3474 10.9867 13.9527 11.3807L12.5707 12.7627C12.1987 13.1347 11.724 13.3887 11.208 13.492L9.25469 13.8827C8.86735 13.96 8.46802 13.9507 8.08469 13.8547L6.31802 13.4133C6.10669 13.36 5.89002 13.3333 5.67202 13.3333H4.66669" stroke="#F5F5FF" stroke-width="1.5" stroke-linecap="round" stroke-linejoin="round"/>
<path d="M8.66669 11.3333H9.65669C10.2147 11.3333 10.6667 10.8813 10.6667 10.3233V10.1213C10.6667 9.65796 10.3514 9.25396 9.90202 9.14196L8.37402 8.75996C8.12535 8.69796 7.87069 8.66663 7.61469 8.66663V8.66663C6.99669 8.66663 6.39202 8.84929 5.87802 9.19263L4.66669 9.99996" stroke="#F5F5FF" stroke-width="1.5" stroke-linecap="round" stroke-linejoin="round"/>
<path d="M11.4459 3.43685C12.1847 4.17572 12.1847 5.37367 11.4459 6.11254C10.707 6.85141 9.50903 6.85141 8.77016 6.11254C8.03129 5.37367 8.03129 4.17572 8.77016 3.43685C9.50903 2.69797 10.707 2.69797 11.4459 3.43685" stroke="#6C70FF" stroke-width="1.5" stroke-linecap="round" stroke-linejoin="round"/>
<path d="M9.754 2.91671C9.692 2.54004 9.52 2.17804 9.22933 1.88737C8.49067 1.14871 7.29267 1.14871 6.554 1.88737C5.81533 2.62604 5.81533 3.82404 6.554 4.56271C7.014 5.02271 7.65133 5.19537 8.24533 5.08271" stroke="#6C70FF" stroke-width="1.5" stroke-linecap="round" stroke-linejoin="round"/>
</svg>
