<svg width="21" height="23" viewBox="0 0 21 23" fill="none" xmlns="http://www.w3.org/2000/svg">
<path d="M20.0701 18.084C20.0275 18.5107 19.9528 18.9693 19.8461 19.46C19.7395 19.9293 19.6008 20.356 19.4301 20.74L12.1661 22.276C12.2088 21.8493 12.2835 21.4013 12.3901 20.932C12.4968 20.4413 12.6355 20.004 12.8061 19.62L20.0701 18.084ZM12.1661 17.636V13.028L9.89413 13.508V15.94C9.89413 16.1747 9.83013 16.388 9.70213 16.58L8.19813 18.436C8.02746 18.6493 7.83546 18.8413 7.62213 19.012C7.43013 19.1613 7.20613 19.2573 6.95013 19.3L0.518125 20.644C0.560792 20.2173 0.635458 19.78 0.742125 19.332C0.870125 18.8627 1.01946 18.4467 1.19012 18.084L7.30212 16.772V13.988L1.57413 15.204C1.61679 14.7773 1.69146 14.3187 1.79813 13.828C1.92613 13.3373 2.07546 12.9 2.24613 12.516L7.30212 11.46V2.66C7.62213 2.276 8.02746 1.924 8.51813 1.604C9.00879 1.284 9.46746 1.00667 9.89413 0.771999V10.98L12.1661 10.468V3.812C12.4648 3.428 12.8488 3.076 13.3181 2.756C13.7875 2.436 14.2355 2.148 14.6621 1.892V9.988L20.3261 8.804C20.2835 9.23067 20.2088 9.68933 20.1021 10.18C19.9955 10.6707 19.8568 11.108 19.6861 11.492L14.6621 12.548V14.724L20.3261 13.508C20.2835 13.956 20.2088 14.404 20.1021 14.852C19.9955 15.3 19.8568 15.716 19.6861 16.1L12.1661 17.636Z" fill="white"/>
</svg>
