<svg width="63" height="55" viewBox="0 0 63 55" fill="none" xmlns="http://www.w3.org/2000/svg">
<g clip-path="url(#clip0_82_1646)">
<path d="M57.4947 26.9604C57.4947 39.996 45.8327 50.4226 32.1575 50.4226C18.4824 50.4226 6.74469 39.996 6.74469 26.9604C6.74469 13.9249 18.4824 4.01636 32.1575 4.01636C45.8327 4.01636 57.4947 13.9262 57.4947 26.9604Z" fill="url(#paint0_radial_82_1646)"/>
<path d="M52.4406 10.5954C62.071 19.8819 57.5977 35.6404 47.8685 45.0221C38.1393 54.4038 24.9479 55.6791 15.3175 46.3927C5.68711 37.1063 3.49009 20.994 13.2203 11.6113C22.9504 2.22863 42.8112 1.30993 52.4406 10.5954Z" fill="url(#paint1_radial_82_1646)"/>
<path d="M49.9477 44.0337C40.2569 53.3784 24.2068 51.8067 14.4725 42.42C4.73825 33.0334 4.99095 19.3719 14.6818 10.0272C24.3726 0.682461 38.15 0.816798 47.8843 10.2034C57.6186 19.5901 59.6386 34.6908 49.9487 44.0346L49.9477 44.0337Z" fill="url(#paint2_radial_82_1646)"/>
</g>
<path d="M36.5013 27.9357C36.557 27.5393 36.8749 27.2131 37.2752 27.2131C37.6755 27.2131 38.0049 27.5387 37.9595 27.9364C37.8205 29.152 37.3239 30.2401 36.4698 31.2007C35.7955 31.9606 35.0222 32.5142 34.1499 32.8614C33.4254 33.1497 32.8456 33.79 32.8456 34.5698V35.3082C32.8456 35.7752 32.467 36.1538 32 36.1538C31.533 36.1538 31.1544 35.7752 31.1544 35.3082V34.5698C31.1544 33.79 30.575 33.149 29.8496 32.8628C28.97 32.5157 28.1834 31.9617 27.4899 31.2007C26.6583 30.2402 26.1748 29.1521 26.0395 27.9365C25.9952 27.5387 26.3245 27.2131 26.7248 27.2131C27.1251 27.2131 27.4432 27.5392 27.4973 27.9358C27.6332 28.9334 28.0603 29.7838 28.7785 30.4871C29.6913 31.3266 30.7651 31.7464 32 31.7464C33.2349 31.7464 34.2953 31.3266 35.1812 30.4871C35.9212 29.7838 36.3613 28.9333 36.5013 27.9357ZM30.953 21.7563V27.297C30.953 27.5769 31.047 27.8287 31.2349 28.0526C31.4497 28.2485 31.7047 28.3464 32 28.3464C32.2685 28.3464 32.4966 28.2485 32.6846 28.0526C32.8993 27.8567 33.0067 27.6048 33.0067 27.297L33.047 21.7563C33.047 21.4485 32.9396 21.1966 32.7248 21.0007C32.5101 20.7769 32.2685 20.6649 32 20.6649C31.7315 20.6649 31.4899 20.7769 31.2752 21.0007C31.0604 21.1966 30.953 21.4485 30.953 21.7563ZM33.8121 29.102C33.302 29.6336 32.698 29.8995 32 29.8995C31.302 29.8995 30.698 29.6336 30.1879 29.102C29.6779 28.5703 29.4228 27.9406 29.4228 27.2131V21.8402C29.4228 21.1127 29.6779 20.483 30.1879 19.9513C30.698 19.4197 31.302 19.1538 32 19.1538C32.698 19.1538 33.302 19.4197 33.8121 19.9513C34.3221 20.483 34.5772 21.1127 34.5772 21.8402V27.2131C34.5772 27.9406 34.3221 28.5703 33.8121 29.102Z" fill="white"/>
<defs>
<radialGradient id="paint0_radial_82_1646" cx="0" cy="0" r="1" gradientUnits="userSpaceOnUse" gradientTransform="translate(32.119 27.2201) scale(24.8638 23.7009)">
<stop offset="0.61" stop-color="#3ECCBB" stop-opacity="0"/>
<stop offset="0.76" stop-color="#3ECCBB" stop-opacity="0.01"/>
<stop offset="0.82" stop-color="#3ECCBB" stop-opacity="0.05"/>
<stop offset="0.86" stop-color="#3ECCBB" stop-opacity="0.11"/>
<stop offset="0.89" stop-color="#3ECCBB" stop-opacity="0.2"/>
<stop offset="0.92" stop-color="#3ECCBB" stop-opacity="0.32"/>
<stop offset="0.94" stop-color="#3ECCBB" stop-opacity="0.47"/>
<stop offset="0.97" stop-color="#3ECCBB" stop-opacity="0.65"/>
<stop offset="0.99" stop-color="#3ECCBB" stop-opacity="0.84"/>
<stop offset="1" stop-color="#3ECCBB"/>
</radialGradient>
<radialGradient id="paint1_radial_82_1646" cx="0" cy="0" r="1" gradientTransform="matrix(18.0407 -17.3964 17.8556 17.2179 32.1202 26.7981)" gradientUnits="userSpaceOnUse">
<stop offset="0.61" stop-color="#642E99" stop-opacity="0"/>
<stop offset="0.76" stop-color="#642E99" stop-opacity="0"/>
<stop offset="0.81" stop-color="#642E99" stop-opacity="0.04"/>
<stop offset="0.85" stop-color="#642E99" stop-opacity="0.09"/>
<stop offset="0.88" stop-color="#642E99" stop-opacity="0.16"/>
<stop offset="0.91" stop-color="#642E99" stop-opacity="0.26"/>
<stop offset="0.93" stop-color="#642E99" stop-opacity="0.38"/>
<stop offset="0.95" stop-color="#642E99" stop-opacity="0.52"/>
<stop offset="0.97" stop-color="#642E99" stop-opacity="0.69"/>
<stop offset="0.99" stop-color="#642E99" stop-opacity="0.87"/>
<stop offset="1" stop-color="#642E99"/>
</radialGradient>
<radialGradient id="paint2_radial_82_1646" cx="0" cy="0" r="1" gradientTransform="matrix(17.2118 16.5971 -17.1349 16.523 32.1188 27.2194)" gradientUnits="userSpaceOnUse">
<stop offset="0.61" stop-color="#DBB8FF" stop-opacity="0"/>
<stop offset="0.75" stop-color="#DBB8FF" stop-opacity="0"/>
<stop offset="0.81" stop-color="#DBB8FF" stop-opacity="0.03"/>
<stop offset="0.84" stop-color="#DBB8FF" stop-opacity="0.08"/>
<stop offset="0.87" stop-color="#DBB8FF" stop-opacity="0.15"/>
<stop offset="0.9" stop-color="#DBB8FF" stop-opacity="0.23"/>
<stop offset="0.92" stop-color="#DBB8FF" stop-opacity="0.34"/>
<stop offset="0.94" stop-color="#DBB8FF" stop-opacity="0.47"/>
<stop offset="0.96" stop-color="#DBB8FF" stop-opacity="0.61"/>
<stop offset="0.98" stop-color="#DBB8FF" stop-opacity="0.78"/>
<stop offset="1" stop-color="#DBB8FF"/>
</radialGradient>
<clipPath id="clip0_82_1646">
<rect width="56" height="54" fill="white" transform="translate(4.2558 0.153809)"/>
</clipPath>
</defs>
</svg>
