<svg width="24" height="24" viewBox="0 0 24 24" fill="none" xmlns="http://www.w3.org/2000/svg">
<path d="M9.1 9.9L14.9 7" stroke="#F5F5FF" stroke-width="1.5" stroke-linecap="round" stroke-linejoin="round"/>
<path d="M9.1 12.4L14.9 15.3" stroke="#F5F5FF" stroke-width="1.5" stroke-linecap="round" stroke-linejoin="round"/>
<path d="M8.6 9.30001C9.6 10.3 9.6 12 8.6 13.1C7.6 14.2 5.9 14.1 4.8 13.1C3.7 12.1 3.8 10.4 4.8 9.30001C5.8 8.20001 7.5 8.20001 8.6 9.30001Z" stroke="#6C70FF" stroke-width="1.5" stroke-linecap="round" stroke-linejoin="round"/>
<path d="M17.3 8.50001C18.7912 8.50001 20 7.29118 20 5.80001C20 4.30884 18.7912 3.10001 17.3 3.10001C15.8088 3.10001 14.6 4.30884 14.6 5.80001C14.6 7.29118 15.8088 8.50001 17.3 8.50001Z" stroke="#6C70FF" stroke-width="1.5" stroke-linecap="round" stroke-linejoin="round"/>
<path d="M17.3 19.2C18.7912 19.2 20 17.9912 20 16.5C20 15.0088 18.7912 13.8 17.3 13.8C15.8088 13.8 14.6 15.0088 14.6 16.5C14.6 17.9912 15.8088 19.2 17.3 19.2Z" stroke="#6C70FF" stroke-width="1.5" stroke-linecap="round" stroke-linejoin="round"/>
</svg>
