<svg width="54" height="16" viewBox="0 0 54 16" fill="none" xmlns="http://www.w3.org/2000/svg">
<rect width="54" height="16" rx="8" fill="#07081A"/>
<rect x="4" y="3" width="10" height="10" rx="5" fill="#3ECC6D"/>
<path d="M11.25 6.45312L8.15625 9.54688L6.75 8.14063" stroke="white" stroke-width="0.548438" stroke-linecap="round" stroke-linejoin="round"/>
<path d="M21.4027 4.27H22.4227L25.5127 11H24.3127L23.5927 9.36H20.2327L19.5127 11H18.3227L21.4027 4.27ZM23.1627 8.37L21.9127 5.52L20.6627 8.37H23.1627ZM28.6471 11.13C28.1805 11.13 27.7371 11.03 27.3171 10.83C26.9038 10.6233 26.5671 10.32 26.3071 9.92C26.0538 9.52 25.9271 9.04 25.9271 8.48C25.9271 7.92 26.0538 7.44 26.3071 7.04C26.5671 6.63333 26.9071 6.33 27.3271 6.13C27.7471 5.92333 28.1905 5.82 28.6571 5.82C29.1171 5.82 29.5471 5.92333 29.9471 6.13C30.3538 6.33 30.6705 6.62 30.8971 7L30.0371 7.63C29.8505 7.38333 29.6338 7.19667 29.3871 7.07C29.1405 6.94333 28.8738 6.88 28.5871 6.88C28.3138 6.88 28.0605 6.94333 27.8271 7.07C27.5938 7.19667 27.4071 7.38 27.2671 7.62C27.1271 7.86 27.0571 8.14667 27.0571 8.48C27.0571 8.81333 27.1271 9.1 27.2671 9.34C27.4138 9.58 27.6038 9.76333 27.8371 9.89C28.0705 10.01 28.3205 10.07 28.5871 10.07C28.8738 10.07 29.1405 10.01 29.3871 9.89C29.6338 9.76333 29.8505 9.58 30.0371 9.34L30.8971 9.96C30.6705 10.34 30.3538 10.63 29.9471 10.83C29.5471 11.03 29.1138 11.13 28.6471 11.13ZM34.074 11.13C33.554 11.13 33.1107 10.98 32.744 10.68C32.3774 10.38 32.194 9.89 32.194 9.21V6.87H31.344V5.95H32.194V4.27H33.324V5.95H34.894V6.87H33.324V9.09C33.324 9.43667 33.404 9.68667 33.564 9.84C33.7307 9.99333 33.9407 10.07 34.194 10.07C34.4207 10.07 34.6607 10.01 34.914 9.89L35.134 10.88C35.0074 10.9533 34.8474 11.0133 34.654 11.06C34.4674 11.1067 34.274 11.13 34.074 11.13ZM36.2432 5.95H37.3732V11H36.2432V5.95ZM36.0432 4.61C36.0432 4.41 36.1132 4.24333 36.2532 4.11C36.3999 3.97 36.5866 3.9 36.8132 3.9C37.0399 3.9 37.2232 3.96667 37.3632 4.1C37.5099 4.22667 37.5832 4.38667 37.5832 4.58C37.5832 4.79333 37.5099 4.97 37.3632 5.11C37.2232 5.24333 37.0399 5.31 36.8132 5.31C36.5866 5.31 36.3999 5.24333 36.2532 5.11C36.1132 4.97667 36.0432 4.81 36.0432 4.61ZM38.2618 5.94H39.4718L41.0418 9.67L42.6518 5.94H43.7918L41.6018 11H40.4518L38.2618 5.94ZM46.9507 11.1C46.4041 11.1 45.9141 10.99 45.4807 10.77C45.0541 10.5433 44.7174 10.23 44.4707 9.83C44.2307 9.42333 44.1107 8.96667 44.1107 8.46C44.1107 7.96667 44.2274 7.52 44.4607 7.12C44.6941 6.71333 45.0141 6.39667 45.4207 6.17C45.8274 5.93667 46.2807 5.82 46.7807 5.82C47.2741 5.82 47.7174 5.93333 48.1107 6.16C48.5107 6.38 48.8241 6.69333 49.0507 7.1C49.2774 7.5 49.3907 7.96 49.3907 8.48C49.3907 8.61333 49.3807 8.74 49.3607 8.86H45.2707C45.3507 9.22667 45.5441 9.52667 45.8507 9.76C46.1641 9.99333 46.5341 10.11 46.9607 10.11C47.5341 10.11 48.0407 9.90333 48.4807 9.49L49.1007 10.21C48.5474 10.8033 47.8307 11.1 46.9507 11.1ZM48.2607 8.16C48.2074 7.75333 48.0374 7.42667 47.7507 7.18C47.4641 6.93333 47.1341 6.81 46.7607 6.81C46.3807 6.81 46.0474 6.93333 45.7607 7.18C45.4741 7.42667 45.3041 7.75333 45.2507 8.16H48.2607Z" fill="white"/>
</svg>
