<svg width="40" height="40" viewBox="0 0 40 40" fill="none" xmlns="http://www.w3.org/2000/svg">
<mask id="path-1-inside-1_124_36023" fill="white">
<path d="M0 20C0 8.95431 8.95431 0 20 0C31.0457 0 40 8.95431 40 20C40 31.0457 31.0457 40 20 40C8.95431 40 0 31.0457 0 20Z"/>
</mask>
<path d="M20 40V38C10.0589 38 2 29.9411 2 20H0H-2C-2 32.1503 7.84974 42 20 42V40ZM40 20H38C38 29.9411 29.9411 38 20 38V40V42C32.1503 42 42 32.1503 42 20H40ZM20 0V2C29.9411 2 38 10.0589 38 20H40H42C42 7.84974 32.1503 -2 20 -2V0ZM20 0V-2C7.84974 -2 -2 7.84974 -2 20H0H2C2 10.0589 10.0589 2 20 2V0Z" fill="#8184FF" mask="url(#path-1-inside-1_124_36023)"/>
<path d="M22.5 12.525C23.9 13.925 23.9 16.125 22.5 17.425C21.1 18.725 18.9 18.825 17.6 17.425C16.2 16.025 16.2 13.825 17.6 12.525C18.9 11.125 21.1 11.125 22.5 12.525Z" stroke="#F5F5FF" stroke-width="1.5" stroke-linecap="round" stroke-linejoin="round"/>
<path d="M12 26.525V27.525C12 28.125 12.4 28.525 13 28.525H27C27.6 28.525 28 28.125 28 27.525V26.525C28 23.525 24 21.525 20 21.525C16 21.525 12 23.425 12 26.525Z" stroke="#6C70FF" stroke-width="1.5" stroke-linecap="round" stroke-linejoin="round"/>
</svg>
