<svg width="40" height="40" viewBox="0 0 40 40" fill="none" xmlns="http://www.w3.org/2000/svg">
<path d="M0 8C0 3.58172 3.58172 0 8 0H32C36.4183 0 40 3.58172 40 8V32C40 36.4183 36.4183 40 32 40H8C3.58172 40 0 36.4183 0 32V8Z" fill="#4DB9FF"/>
<path d="M11 13.28C11 12.512 11.7 11.84 12.5 11.84H25" stroke="#0A0A1A" stroke-width="1.5" stroke-linecap="round" stroke-linejoin="round"/>
<path d="M28 23.36H26C24.9 23.36 24 22.496 24 21.44C24 20.384 24.9 19.52 26 19.52H28" stroke="#0A0A1A" stroke-width="1.5" stroke-linecap="round" stroke-linejoin="round"/>
<path d="M28 23.36C28.6 23.36 29 22.976 29 22.4V20.48C29 19.904 28.6 19.52 28 19.52" stroke="#0A0A1A" stroke-width="1.5" stroke-linecap="round" stroke-linejoin="round"/>
<path d="M28 23.36V26.24C28 27.296 27.1 28.16 26 28.16H13C11.9 28.16 11 27.296 11 26.24V13.28" stroke="#0A0A1A" stroke-width="1.5" stroke-linecap="round" stroke-linejoin="round"/>
<path d="M28 19.52V16.64C28 15.584 27.1 14.72 26 14.72H12.5C11.7 14.72 11 14.048 11 13.28" stroke="#0A0A1A" stroke-width="1.5" stroke-linecap="round" stroke-linejoin="round"/>
</svg>
